<svg xmlns="http://www.w3.org/2000/svg" xmlns:xlink="http://www.w3.org/1999/xlink" stroke-miterlimit="10" stroke-linecap="square" stroke="none" fill="none" viewBox="0.0 0.0 961.2887139107612 100.0" version="1.1"><clipPath id="p.0"><path clip-rule="nonzero" d="m0 0l961.2887 0l0 100.0l-961.2887 0l0 -100.0z"></path></clipPath><g clip-path="url(#p.0)"><path fill-rule="evenodd" d="m0 0l961.2887 0l0 100.0l-961.2887 0z" fill-opacity="0.0" fill="#000000"></path><path fill-rule="evenodd" d="m-1.0 7.874016l1005.0079 0" fill-opacity="0.0" fill="#000000"></path><path fill-rule="evenodd" d="m-1.0 7.874016l1005.0079 0" stroke-dasharray="3.0,9.0" stroke-linecap="butt" stroke-linejoin="round" stroke-width="3.0" stroke="#666d72"></path><path fill-rule="evenodd" d="m961.79266 92.125984l-969.7953 0" fill-opacity="0.0" fill="#000000"></path><path fill-rule="evenodd" d="m961.79266 92.125984l-969.7953 0" stroke-dasharray="3.0,9.0" stroke-linecap="butt" stroke-linejoin="round" stroke-width="3.0" stroke="#666d72"></path><path fill-rule="evenodd" d="m-0.001312336 16.17323l961.2914 0l0 59.77953l-961.2914 0z" fill-opacity="0.0" fill="#000000"></path><path fill-rule="nonzero" d="m433.03397 33.313854l8.8125 0q2.96875 0 4.53125 0.453125q2.109375 0.625 3.59375 2.203125q1.5 1.578125 2.28125 3.875q0.78125 2.28125 0.78125 5.625q0 2.953125 -0.734375 5.078125q-0.890625 2.609375 -2.546875 4.21875q-1.25 1.21875 -3.390625 1.90625q-1.59375 0.5 -4.265625 0.5l-9.0625 0l0 -23.859375zm4.8125 4.03125l0 15.8125l3.609375 0q2.015625 0 2.90625 -0.234375q1.171875 -0.296875 1.9375 -0.984375q0.78125 -0.703125 1.265625 -2.296875q0.484375 -1.609375 0.484375 -4.375q0 -2.765625 -0.484375 -4.25q-0.484375 -1.484375 -1.375 -2.3125q-0.875 -0.828125 -2.21875 -1.125q-1.015625 -0.234375 -3.953125 -0.234375l-2.171875 0zm29.256012 14.328125l4.546875 0.765625q-0.875 2.5 -2.78125 3.8125q-1.890625 1.3125 -4.734375 1.3125q-4.5 0 -6.671875 -2.953125q-1.703125 -2.359375 -1.703125 -5.953125q0 -4.296875 2.234375 -6.71875q2.25 -2.4375 5.6875 -2.4375q3.859375 0 6.078125 2.546875q2.234375 2.546875 2.140625 7.796875l-11.453125 0q0.046875 2.046875 1.09375 3.171875q1.0625 1.125 2.640625 1.125q1.078125 0 1.8125 -0.578125q0.734375 -0.59375 1.109375 -1.890625zm0.25 -4.625q-0.046875 -1.984375 -1.03125 -3.015625q-0.96875 -1.03125 -2.359375 -1.03125q-1.5 0 -2.484375 1.09375q-0.96875 1.078125 -0.953125 2.953125l6.828125 0zm11.691772 -1.890625l-4.15625 -0.75q0.703125 -2.5 2.40625 -3.703125q1.71875 -1.203125 5.078125 -1.203125q3.0625 0 4.5625 0.734375q1.5 0.71875 2.109375 1.828125q0.609375 1.109375 0.609375 4.09375l-0.046875 5.34375q0 2.265625 0.21875 3.359375q0.21875 1.078125 0.8125 2.3125l-4.515625 0q-0.1875 -0.453125 -0.4375 -1.34375q-0.125 -0.40625 -0.171875 -0.546875q-1.171875 1.140625 -2.5 1.71875q-1.328125 0.5625 -2.84375 0.5625q-2.671875 0 -4.21875 -1.4375q-1.53125 -1.453125 -1.53125 -3.671875q0 -1.46875 0.703125 -2.609375q0.703125 -1.15625 1.953125 -1.765625q1.265625 -0.609375 3.640625 -1.0625q3.203125 -0.59375 4.4375 -1.125l0 -0.453125q0 -1.3125 -0.65625 -1.875q-0.640625 -0.5625 -2.453125 -0.5625q-1.21875 0 -1.90625 0.484375q-0.671875 0.46875 -1.09375 1.671875zm6.109375 3.71875q-0.875 0.296875 -2.78125 0.703125q-1.90625 0.40625 -2.484375 0.796875q-0.890625 0.625 -0.890625 1.609375q0 0.953125 0.703125 1.65625q0.71875 0.703125 1.828125 0.703125q1.234375 0 2.359375 -0.8125q0.828125 -0.625 1.09375 -1.515625q0.171875 -0.59375 0.171875 -2.234375l0 -0.90625zm24.723022 8.296875l-4.5625 0l0 -8.8125q0 -2.8125 -0.296875 -3.625q-0.296875 -0.828125 -0.953125 -1.28125q-0.65625 -0.453125 -1.59375 -0.453125q-1.1875 0 -2.140625 0.65625q-0.9375 0.640625 -1.28125 1.71875q-0.34375 1.078125 -0.34375 3.96875l0 7.828125l-4.578125 0l0 -17.28125l4.25 0l0 2.53125q2.265625 -2.921875 5.6875 -2.921875q1.515625 0 2.765625 0.546875q1.265625 0.546875 1.90625 1.390625q0.640625 0.84375 0.890625 1.921875q0.25 1.078125 0.25 3.078125l0 10.734375zm3.0299683 -4.9375l4.59375 -0.6875q0.28125 1.328125 1.171875 2.03125q0.90625 0.6875 2.515625 0.6875q1.78125 0 2.671875 -0.65625q0.59375 -0.453125 0.59375 -1.21875q0 -0.53125 -0.3125 -0.859375q-0.34375 -0.328125 -1.53125 -0.609375q-5.53125 -1.21875 -7.015625 -2.234375q-2.046875 -1.390625 -2.046875 -3.890625q0 -2.234375 1.765625 -3.765625q1.78125 -1.53125 5.5 -1.53125q3.546875 0 5.265625 1.15625q1.734375 1.15625 2.390625 3.421875l-4.3125 0.796875q-0.28125 -1.015625 -1.0625 -1.546875q-0.765625 -0.546875 -2.203125 -0.546875q-1.796875 0 -2.578125 0.515625q-0.53125 0.359375 -0.53125 0.921875q0 0.484375 0.46875 0.828125q0.609375 0.453125 4.265625 1.28125q3.65625 0.828125 5.109375 2.046875q1.421875 1.21875 1.421875 3.390625q0 2.375 -1.984375 4.09375q-1.984375 1.703125 -5.875 1.703125q-3.53125 0 -5.59375 -1.421875q-2.046875 -1.4375 -2.6875 -3.90625z" fill="#434343"></path></g></svg>