<svg xmlns="http://www.w3.org/2000/svg" xmlns:xlink="http://www.w3.org/1999/xlink" stroke-miterlimit="10" stroke-linecap="square" stroke="none" fill="none" viewBox="0.0 0.0 961.2887139107612 100.0" version="1.1"><clipPath id="p.0"><path clip-rule="nonzero" d="m0 0l961.2887 0l0 100.0l-961.2887 0l0 -100.0z"></path></clipPath><g clip-path="url(#p.0)"><path fill-rule="evenodd" d="m0 0l961.2887 0l0 100.0l-961.2887 0z" fill-opacity="0.0" fill="#000000"></path><path fill-rule="evenodd" d="m-1.0 7.874016l1005.0079 0" fill-opacity="0.0" fill="#000000"></path><path fill-rule="evenodd" d="m-1.0 7.874016l1005.0079 0" stroke-dasharray="3.0,9.0" stroke-linecap="butt" stroke-linejoin="round" stroke-width="3.0" stroke="#666d72"></path><path fill-rule="evenodd" d="m961.79266 92.125984l-969.7953 0" fill-opacity="0.0" fill="#000000"></path><path fill-rule="evenodd" d="m961.79266 92.125984l-969.7953 0" stroke-dasharray="3.0,9.0" stroke-linecap="butt" stroke-linejoin="round" stroke-width="3.0" stroke="#666d72"></path><path fill-rule="evenodd" d="m-0.001312336 16.17323l961.2914 0l0 59.77953l-961.2914 0z" fill-opacity="0.0" fill="#000000"></path><path fill-rule="nonzero" d="m184.53894 49.407604l4.6875 -0.453125q0.421875 2.359375 1.71875 3.46875q1.296875 1.109375 3.484375 1.109375q2.328125 0 3.5 -0.984375q1.1875 -0.984375 1.1875 -2.3125q0 -0.84375 -0.5 -1.4375q-0.484375 -0.59375 -1.71875 -1.03125q-0.859375 -0.296875 -3.859375 -1.046875q-3.875 -0.953125 -5.4375 -2.359375q-2.203125 -1.96875 -2.203125 -4.796875q0 -1.828125 1.03125 -3.40625q1.046875 -1.59375 2.984375 -2.421875q1.9375 -0.828125 4.6875 -0.828125q4.5 0 6.765625 1.96875q2.28125 1.96875 2.390625 5.265625l-4.8125 0.203125q-0.3125 -1.84375 -1.328125 -2.640625q-1.015625 -0.8125 -3.0625 -0.8125q-2.09375 0 -3.28125 0.859375q-0.765625 0.5625 -0.765625 1.484375q0 0.84375 0.71875 1.453125q0.90625 0.765625 4.421875 1.59375q3.515625 0.828125 5.203125 1.71875q1.6875 0.890625 2.640625 2.4375q0.953125 1.53125 0.953125 3.78125q0 2.0625 -1.140625 3.859375q-1.140625 1.78125 -3.234375 2.65625q-2.078125 0.859375 -5.1875 0.859375q-4.515625 0 -6.953125 -2.09375q-2.421875 -2.09375 -2.890625 -6.09375zm34.7921 7.765625l0 -2.59375q-0.9375 1.390625 -2.484375 2.1875q-1.53125 0.796875 -3.234375 0.796875q-1.75 0 -3.140625 -0.765625q-1.375 -0.765625 -2.0 -2.140625q-0.609375 -1.390625 -0.609375 -3.828125l0 -10.9375l4.578125 0l0 7.9375q0 3.640625 0.25 4.46875q0.25 0.828125 0.90625 1.3125q0.671875 0.46875 1.703125 0.46875q1.171875 0 2.09375 -0.640625q0.9375 -0.640625 1.265625 -1.59375q0.34375 -0.953125 0.34375 -4.65625l0 -7.296875l4.578125 0l0 17.28125l-4.25 0zm8.795654 0l0 -23.859375l4.5625 0l0 8.59375q2.125 -2.40625 5.015625 -2.40625q3.15625 0 5.21875 2.296875q2.078125 2.28125 2.078125 6.5625q0 4.421875 -2.109375 6.8125q-2.109375 2.390625 -5.125 2.390625q-1.484375 0 -2.921875 -0.734375q-1.4375 -0.75 -2.484375 -2.1875l0 2.53125l-4.234375 0zm4.53125 -9.015625q0 2.6875 0.84375 3.96875q1.1875 1.828125 3.15625 1.828125q1.515625 0 2.578125 -1.296875q1.078125 -1.296875 1.078125 -4.078125q0 -2.953125 -1.078125 -4.265625q-1.078125 -1.3125 -2.75 -1.3125q-1.640625 0 -2.734375 1.28125q-1.09375 1.265625 -1.09375 3.875zm15.920654 -10.609375l0 -4.234375l4.578125 0l0 4.234375l-4.578125 0zm4.578125 2.34375l0 16.75q0 3.296875 -0.4375 4.65625q-0.4375 1.359375 -1.671875 2.125q-1.21875 0.7656212 -3.125 0.7656212q-0.6875 0 -1.484375 -0.125q-0.78125 -0.124996185 -1.6875 -0.3593712l0.796875 -3.90625q0.328125 0.0625 0.609375 0.09375q0.28125 0.046875 0.53125 0.046875q0.703125 0 1.140625 -0.296875q0.453125 -0.296875 0.59375 -0.734375q0.15625 -0.421875 0.15625 -2.53125l0 -16.484375l4.578125 0zm14.790878 11.78125l4.546875 0.765625q-0.875 2.5 -2.78125 3.8125q-1.890625 1.3125 -4.734375 1.3125q-4.5 0 -6.671875 -2.953125q-1.703125 -2.359375 -1.703125 -5.953125q0 -4.296875 2.234375 -6.71875q2.25 -2.4375 5.6875 -2.4375q3.859375 0 6.078125 2.546875q2.234375 2.546875 2.140625 7.796875l-11.453125 0q0.046875 2.046875 1.09375 3.171875q1.0625 1.125 2.640625 1.125q1.078125 0 1.8125 -0.578125q0.734375 -0.59375 1.109375 -1.890625zm0.25 -4.625q-0.046875 -1.984375 -1.03125 -3.015625q-0.96875 -1.03125 -2.359375 -1.03125q-1.5 0 -2.484375 1.09375q-0.96875 1.078125 -0.953125 2.953125l6.828125 0zm23.348022 -2.046875l-4.515625 0.8125q-0.234375 -1.34375 -1.046875 -2.03125q-0.796875 -0.6875 -2.078125 -0.6875q-1.703125 0 -2.71875 1.1875q-1.015625 1.171875 -1.015625 3.9375q0 3.078125 1.03125 4.34375q1.03125 1.265625 2.765625 1.265625q1.3125 0 2.140625 -0.734375q0.828125 -0.734375 1.171875 -2.546875l4.484375 0.765625q-0.703125 3.09375 -2.6875 4.671875q-1.984375 1.578125 -5.3125 1.578125q-3.796875 0 -6.046875 -2.390625q-2.25 -2.390625 -2.25 -6.625q0 -4.28125 2.25 -6.65625q2.265625 -2.390625 6.125 -2.390625q3.15625 0 5.015625 1.359375q1.859375 1.359375 2.6875 4.140625zm11.379272 -5.109375l0 3.640625l-3.125 0l0 6.96875q0 2.109375 0.09375 2.46875q0.09375 0.34375 0.40625 0.578125q0.3125 0.21875 0.78125 0.21875q0.625 0 1.828125 -0.4375l0.390625 3.546875q-1.59375 0.6875 -3.609375 0.6875q-1.234375 0 -2.234375 -0.40625q-0.984375 -0.421875 -1.453125 -1.078125q-0.46875 -0.65625 -0.640625 -1.78125q-0.140625 -0.796875 -0.140625 -3.234375l0 -7.53125l-2.109375 0l0 -3.640625l2.109375 0l0 -3.4375l4.578125 -2.671875l0 6.109375l3.125 0zm12.483154 17.28125l0 -23.859375l4.828125 0l0 9.390625l9.4375 0l0 -9.390625l4.8125 0l0 23.859375l-4.8125 0l0 -10.4375l-9.4375 0l0 10.4375l-4.828125 0zm34.037262 -5.5l4.546875 0.765625q-0.875 2.5 -2.78125 3.8125q-1.890625 1.3125 -4.734375 1.3125q-4.5 0 -6.671875 -2.953125q-1.703125 -2.359375 -1.703125 -5.953125q0 -4.296875 2.234375 -6.71875q2.25 -2.4375 5.6875 -2.4375q3.859375 0 6.078125 2.546875q2.234375 2.546875 2.140625 7.796875l-11.453125 0q0.046875 2.046875 1.09375 3.171875q1.0625 1.125 2.640625 1.125q1.078125 0 1.8125 -0.578125q0.734375 -0.59375 1.109375 -1.890625zm0.25 -4.625q-0.046875 -1.984375 -1.03125 -3.015625q-0.96875 -1.03125 -2.359375 -1.03125q-1.5 0 -2.484375 1.09375q-0.96875 1.078125 -0.953125 2.953125l6.828125 0zm11.691772 -1.890625l-4.15625 -0.75q0.703125 -2.5 2.40625 -3.703125q1.71875 -1.203125 5.078125 -1.203125q3.0625 0 4.5625 0.734375q1.5 0.71875 2.109375 1.828125q0.609375 1.109375 0.609375 4.09375l-0.046875 5.34375q0 2.265625 0.21875 3.359375q0.21875 1.078125 0.8125 2.3125l-4.515625 0q-0.1875 -0.453125 -0.4375 -1.34375q-0.125 -0.40625 -0.171875 -0.546875q-1.171875 1.140625 -2.5 1.71875q-1.328125 0.5625 -2.84375 0.5625q-2.671875 0 -4.21875 -1.4375q-1.53125 -1.453125 -1.53125 -3.671875q0 -1.46875 0.703125 -2.609375q0.703125 -1.15625 1.953125 -1.765625q1.265625 -0.609375 3.640625 -1.0625q3.203125 -0.59375 4.4375 -1.125l0 -0.453125q0 -1.3125 -0.65625 -1.875q-0.640625 -0.5625 -2.453125 -0.5625q-1.21875 0 -1.90625 0.484375q-0.671875 0.46875 -1.09375 1.671875zm6.109375 3.71875q-0.875 0.296875 -2.78125 0.703125q-1.90625 0.40625 -2.484375 0.796875q-0.890625 0.625 -0.890625 1.609375q0 0.953125 0.703125 1.65625q0.71875 0.703125 1.828125 0.703125q1.234375 0 2.359375 -0.8125q0.828125 -0.625 1.09375 -1.515625q0.171875 -0.59375 0.171875 -2.234375l0 -0.90625zm24.863647 8.296875l-4.25 0l0 -2.53125q-1.0625 1.46875 -2.5 2.203125q-1.4375 0.71875 -2.90625 0.71875q-2.984375 0 -5.109375 -2.390625q-2.125 -2.40625 -2.125 -6.703125q0 -4.390625 2.0625 -6.671875q2.078125 -2.296875 5.234375 -2.296875q2.890625 0 5.015625 2.40625l0 -8.59375l4.578125 0l0 23.859375zm-12.21875 -9.015625q0 2.765625 0.765625 4.0q1.109375 1.796875 3.09375 1.796875q1.578125 0 2.6875 -1.34375q1.109375 -1.34375 1.109375 -4.015625q0 -2.96875 -1.078125 -4.28125q-1.078125 -1.3125 -2.75 -1.3125q-1.625 0 -2.734375 1.296875q-1.09375 1.28125 -1.09375 3.859375zm15.108154 4.078125l4.59375 -0.6875q0.28125 1.328125 1.171875 2.03125q0.90625 0.6875 2.515625 0.6875q1.78125 0 2.671875 -0.65625q0.59375 -0.453125 0.59375 -1.21875q0 -0.53125 -0.3125 -0.859375q-0.34375 -0.328125 -1.53125 -0.609375q-5.53125 -1.21875 -7.015625 -2.234375q-2.046875 -1.390625 -2.046875 -3.890625q0 -2.234375 1.765625 -3.765625q1.78125 -1.53125 5.5 -1.53125q3.546875 0 5.265625 1.15625q1.734375 1.15625 2.390625 3.421875l-4.3125 0.796875q-0.28125 -1.015625 -1.0625 -1.546875q-0.765625 -0.546875 -2.203125 -0.546875q-1.796875 0 -2.578125 0.515625q-0.53125 0.359375 -0.53125 0.921875q0 0.484375 0.46875 0.828125q0.609375 0.453125 4.265625 1.28125q3.65625 0.828125 5.109375 2.046875q1.421875 1.21875 1.421875 3.390625q0 2.375 -1.984375 4.09375q-1.984375 1.703125 -5.875 1.703125q-3.53125 0 -5.59375 -1.421875q-2.046875 -1.4375 -2.6875 -3.90625zm26.96701 5.34375l5.90625 -24.671875l3.4375 0l-5.984375 24.671875l-3.359375 0zm41.266663 -0.40625l-5.234375 0l-2.09375 -5.421875l-9.53125 0l-1.96875 5.421875l-5.109375 0l9.296875 -23.859375l5.09375 0l9.546875 23.859375zm-8.875 -9.4375l-3.28125 -8.859375l-3.21875 8.859375l6.5 0zm9.787262 4.5l4.59375 -0.6875q0.28125 1.328125 1.171875 2.03125q0.90625 0.6875 2.515625 0.6875q1.78125 0 2.671875 -0.65625q0.59375 -0.453125 0.59375 -1.21875q0 -0.53125 -0.3125 -0.859375q-0.34375 -0.328125 -1.53125 -0.609375q-5.53125 -1.21875 -7.015625 -2.234375q-2.046875 -1.390625 -2.046875 -3.890625q0 -2.234375 1.765625 -3.765625q1.78125 -1.53125 5.5 -1.53125q3.546875 0 5.265625 1.15625q1.734375 1.15625 2.390625 3.421875l-4.3125 0.796875q-0.28125 -1.015625 -1.0625 -1.546875q-0.765625 -0.546875 -2.203125 -0.546875q-1.796875 0 -2.578125 0.515625q-0.53125 0.359375 -0.53125 0.921875q0 0.484375 0.46875 0.828125q0.609375 0.453125 4.265625 1.28125q3.65625 0.828125 5.109375 2.046875q1.421875 1.21875 1.421875 3.390625q0 2.375 -1.984375 4.09375q-1.984375 1.703125 -5.875 1.703125q-3.53125 0 -5.59375 -1.421875q-2.046875 -1.4375 -2.6875 -3.90625zm18.535522 0l4.59375 -0.6875q0.28125 1.328125 1.171875 2.03125q0.90625 0.6875 2.515625 0.6875q1.78125 0 2.671875 -0.65625q0.59375 -0.453125 0.59375 -1.21875q0 -0.53125 -0.3125 -0.859375q-0.34375 -0.328125 -1.53125 -0.609375q-5.53125 -1.21875 -7.015625 -2.234375q-2.046875 -1.390625 -2.046875 -3.890625q0 -2.234375 1.765625 -3.765625q1.78125 -1.53125 5.5 -1.53125q3.546875 0 5.265625 1.15625q1.734375 1.15625 2.390625 3.421875l-4.3125 0.796875q-0.28125 -1.015625 -1.0625 -1.546875q-0.765625 -0.546875 -2.203125 -0.546875q-1.796875 0 -2.578125 0.515625q-0.53125 0.359375 -0.53125 0.921875q0 0.484375 0.46875 0.828125q0.609375 0.453125 4.265625 1.28125q3.65625 0.828125 5.109375 2.046875q1.421875 1.21875 1.421875 3.390625q0 2.375 -1.984375 4.09375q-1.984375 1.703125 -5.875 1.703125q-3.53125 0 -5.59375 -1.421875q-2.046875 -1.4375 -2.6875 -3.90625zm20.144897 -14.6875l0 -4.234375l4.578125 0l0 4.234375l-4.578125 0zm0 19.625l0 -17.28125l4.578125 0l0 17.28125l-4.578125 0zm7.6502686 -4.9375l4.593689 -0.6875q0.28125 1.328125 1.171875 2.03125q0.90625 0.6875 2.515625 0.6875q1.78125 0 2.671875 -0.65625q0.59375 -0.453125 0.59375 -1.21875q0 -0.53125 -0.3125 -0.859375q-0.34375 -0.328125 -1.53125 -0.609375q-5.53125 -1.21875 -7.015625 -2.234375q-2.046814 -1.390625 -2.046814 -3.890625q0 -2.234375 1.765564 -3.765625q1.78125 -1.53125 5.5 -1.53125q3.546875 0 5.265625 1.15625q1.734375 1.15625 2.390625 3.421875l-4.3125 0.796875q-0.28125 -1.015625 -1.0625 -1.546875q-0.765625 -0.546875 -2.203125 -0.546875q-1.796875 0 -2.578125 0.515625q-0.53125 0.359375 -0.53125 0.921875q0 0.484375 0.46875 0.828125q0.609375 0.453125 4.265625 1.28125q3.65625 0.828125 5.109375 2.046875q1.421875 1.21875 1.421875 3.390625q0 2.375 -1.984375 4.09375q-1.984375 1.703125 -5.875 1.703125q-3.53125 0 -5.59375 -1.421875q-2.046814 -1.4375 -2.687439 -3.90625zm28.066711 -12.34375l0 3.640625l-3.125 0l0 6.96875q0 2.109375 0.09375 2.46875q0.09375 0.34375 0.40625 0.578125q0.3125 0.21875 0.78125 0.21875q0.625 0 1.828125 -0.4375l0.390625 3.546875q-1.59375 0.6875 -3.609375 0.6875q-1.234375 0 -2.234375 -0.40625q-0.984375 -0.421875 -1.453125 -1.078125q-0.46875 -0.65625 -0.640625 -1.78125q-0.140625 -0.796875 -0.140625 -3.234375l0 -7.53125l-2.109375 0l0 -3.640625l2.109375 0l0 -3.4375l4.578125 -2.671875l0 6.109375l3.125 0zm6.5985107 5.265625l-4.15625 -0.75q0.703125 -2.5 2.40625 -3.703125q1.71875 -1.203125 5.078125 -1.203125q3.0625 0 4.5625 0.734375q1.5 0.71875 2.109375 1.828125q0.609375 1.109375 0.609375 4.09375l-0.046875 5.34375q0 2.265625 0.21875 3.359375q0.21875 1.078125 0.8125 2.3125l-4.515625 0q-0.1875 -0.453125 -0.4375 -1.34375q-0.125 -0.40625 -0.171875 -0.546875q-1.171875 1.140625 -2.5 1.71875q-1.328125 0.5625 -2.84375 0.5625q-2.671875 0 -4.21875 -1.4375q-1.53125 -1.453125 -1.53125 -3.671875q0 -1.46875 0.703125 -2.609375q0.703125 -1.15625 1.953125 -1.765625q1.265625 -0.609375 3.640625 -1.0625q3.203125 -0.59375 4.4375 -1.125l0 -0.453125q0 -1.3125 -0.65625 -1.875q-0.640625 -0.5625 -2.453125 -0.5625q-1.21875 0 -1.90625 0.484375q-0.671875 0.46875 -1.09375 1.671875zm6.109375 3.71875q-0.875 0.296875 -2.78125 0.703125q-1.90625 0.40625 -2.484375 0.796875q-0.890625 0.625 -0.890625 1.609375q0 0.953125 0.703125 1.65625q0.71875 0.703125 1.828125 0.703125q1.234375 0 2.359375 -0.8125q0.828125 -0.625 1.09375 -1.515625q0.171875 -0.59375 0.171875 -2.234375l0 -0.90625zm24.723022 8.296875l-4.5625 0l0 -8.8125q0 -2.8125 -0.296875 -3.625q-0.296875 -0.828125 -0.953125 -1.28125q-0.65625 -0.453125 -1.59375 -0.453125q-1.1875 0 -2.140625 0.65625q-0.9375 0.640625 -1.28125 1.71875q-0.34375 1.078125 -0.34375 3.96875l0 7.828125l-4.578125 0l0 -17.28125l4.25 0l0 2.53125q2.265625 -2.921875 5.6875 -2.921875q1.515625 0 2.765625 0.546875q1.265625 0.546875 1.90625 1.390625q0.640625 0.84375 0.890625 1.921875q0.25 1.078125 0.25 3.078125l0 10.734375zm12.561279 -17.28125l0 3.640625l-3.125 0l0 6.96875q0 2.109375 0.09375 2.46875q0.09375 0.34375 0.40625 0.578125q0.3125 0.21875 0.78125 0.21875q0.625 0 1.828125 -0.4375l0.390625 3.546875q-1.59375 0.6875 -3.609375 0.6875q-1.234375 0 -2.234375 -0.40625q-0.984375 -0.421875 -1.453125 -1.078125q-0.46875 -0.65625 -0.640625 -1.78125q-0.140625 -0.796875 -0.140625 -3.234375l0 -7.53125l-2.109375 0l0 -3.640625l2.109375 0l0 -3.4375l4.578125 -2.671875l0 6.109375l3.125 0zm18.130981 17.28125l0 -10.046875l-8.734375 -13.8125l5.640625 0l5.625 9.4375l5.5 -9.4375l5.546875 0l-8.78125 13.84375l0 10.015625l-4.796875 0zm24.10913 -5.5l4.546875 0.765625q-0.875 2.5 -2.78125 3.8125q-1.890625 1.3125 -4.734375 1.3125q-4.5 0 -6.671875 -2.953125q-1.703125 -2.359375 -1.703125 -5.953125q0 -4.296875 2.234375 -6.71875q2.25 -2.4375 5.6875 -2.4375q3.859375 0 6.078125 2.546875q2.234375 2.546875 2.140625 7.796875l-11.453125 0q0.046875 2.046875 1.09375 3.171875q1.0625 1.125 2.640625 1.125q1.078125 0 1.8125 -0.578125q0.734375 -0.59375 1.109375 -1.890625zm0.25 -4.625q-0.046875 -1.984375 -1.03125 -3.015625q-0.96875 -1.03125 -2.359375 -1.03125q-1.5 0 -2.484375 1.09375q-0.96875 1.078125 -0.953125 2.953125l6.828125 0zm11.691772 -1.890625l-4.15625 -0.75q0.703125 -2.5 2.40625 -3.703125q1.71875 -1.203125 5.078125 -1.203125q3.0625 0 4.5625 0.734375q1.5 0.71875 2.109375 1.828125q0.609375 1.109375 0.609375 4.09375l-0.046875 5.34375q0 2.265625 0.21875 3.359375q0.21875 1.078125 0.8125 2.3125l-4.515625 0q-0.1875 -0.453125 -0.4375 -1.34375q-0.125 -0.40625 -0.171875 -0.546875q-1.171875 1.140625 -2.5 1.71875q-1.328125 0.5625 -2.84375 0.5625q-2.671875 0 -4.21875 -1.4375q-1.53125 -1.453125 -1.53125 -3.671875q0 -1.46875 0.703125 -2.609375q0.703125 -1.15625 1.953125 -1.765625q1.265625 -0.609375 3.640625 -1.0625q3.203125 -0.59375 4.4375 -1.125l0 -0.453125q0 -1.3125 -0.65625 -1.875q-0.640625 -0.5625 -2.453125 -0.5625q-1.21875 0 -1.90625 0.484375q-0.671875 0.46875 -1.09375 1.671875zm6.109375 3.71875q-0.875 0.296875 -2.78125 0.703125q-1.90625 0.40625 -2.484375 0.796875q-0.890625 0.625 -0.890625 1.609375q0 0.953125 0.703125 1.65625q0.71875 0.703125 1.828125 0.703125q1.234375 0 2.359375 -0.8125q0.828125 -0.625 1.09375 -1.515625q0.171875 -0.59375 0.171875 -2.234375l0 -0.90625zm13.379272 8.296875l-4.5625 0l0 -17.28125l4.234375 0l0 2.453125q1.09375 -1.734375 1.96875 -2.28125q0.875 -0.5625 1.96875 -0.5625q1.5625 0 3.015625 0.859375l-1.40625 3.984375q-1.15625 -0.75 -2.15625 -0.75q-0.953125 0 -1.625 0.53125q-0.671875 0.53125 -1.0625 1.921875q-0.375 1.375 -0.375 5.78125l0 5.34375zm17.90149 0l0 -23.859375l4.828125 0l0 9.390625l9.4375 0l0 -9.390625l4.8125 0l0 23.859375l-4.8125 0l0 -10.4375l-9.4375 0l0 10.4375l-4.828125 0zm34.037354 -5.5l4.546875 0.765625q-0.875 2.5 -2.78125 3.8125q-1.890625 1.3125 -4.734375 1.3125q-4.5 0 -6.671875 -2.953125q-1.703125 -2.359375 -1.703125 -5.953125q0 -4.296875 2.234375 -6.71875q2.25 -2.4375 5.6875 -2.4375q3.859375 0 6.078125 2.546875q2.234375 2.546875 2.140625 7.796875l-11.453125 0q0.046875 2.046875 1.09375 3.171875q1.0625 1.125 2.640625 1.125q1.078125 0 1.8125 -0.578125q0.734375 -0.59375 1.109375 -1.890625zm0.25 -4.625q-0.046875 -1.984375 -1.03125 -3.015625q-0.96875 -1.03125 -2.359375 -1.03125q-1.5 0 -2.484375 1.09375q-0.96875 1.078125 -0.953125 2.953125l6.828125 0zm11.691772 -1.890625l-4.15625 -0.75q0.703125 -2.5 2.40625 -3.703125q1.71875 -1.203125 5.078125 -1.203125q3.0625 0 4.5625 0.734375q1.5 0.71875 2.109375 1.828125q0.609375 1.109375 0.609375 4.09375l-0.046875 5.34375q0 2.265625 0.21875 3.359375q0.21875 1.078125 0.8125 2.3125l-4.515625 0q-0.1875 -0.453125 -0.4375 -1.34375q-0.125 -0.40625 -0.171875 -0.546875q-1.171875 1.140625 -2.5 1.71875q-1.328125 0.5625 -2.84375 0.5625q-2.671875 0 -4.21875 -1.4375q-1.53125 -1.453125 -1.53125 -3.671875q0 -1.46875 0.703125 -2.609375q0.703125 -1.15625 1.953125 -1.765625q1.265625 -0.609375 3.640625 -1.0625q3.203125 -0.59375 4.4375 -1.125l0 -0.453125q0 -1.3125 -0.65625 -1.875q-0.640625 -0.5625 -2.453125 -0.5625q-1.21875 0 -1.90625 0.484375q-0.671875 0.46875 -1.09375 1.671875zm6.109375 3.71875q-0.875 0.296875 -2.78125 0.703125q-1.90625 0.40625 -2.484375 0.796875q-0.890625 0.625 -0.890625 1.609375q0 0.953125 0.703125 1.65625q0.71875 0.703125 1.828125 0.703125q1.234375 0 2.359375 -0.8125q0.828125 -0.625 1.09375 -1.515625q0.171875 -0.59375 0.171875 -2.234375l0 -0.90625zm24.863647 8.296875l-4.25 0l0 -2.53125q-1.0625 1.46875 -2.5 2.203125q-1.4375 0.71875 -2.90625 0.71875q-2.984375 0 -5.109375 -2.390625q-2.125 -2.40625 -2.125 -6.703125q0 -4.390625 2.0625 -6.671875q2.078125 -2.296875 5.234375 -2.296875q2.890625 0 5.015625 2.40625l0 -8.59375l4.578125 0l0 23.859375zm-12.21875 -9.015625q0 2.765625 0.765625 4.0q1.109375 1.796875 3.09375 1.796875q1.578125 0 2.6875 -1.34375q1.109375 -1.34375 1.109375 -4.015625q0 -2.96875 -1.078125 -4.28125q-1.078125 -1.3125 -2.75 -1.3125q-1.625 0 -2.734375 1.296875q-1.09375 1.28125 -1.09375 3.859375zm15.108154 4.078125l4.59375 -0.6875q0.28125 1.328125 1.171875 2.03125q0.90625 0.6875 2.515625 0.6875q1.78125 0 2.671875 -0.65625q0.59375 -0.453125 0.59375 -1.21875q0 -0.53125 -0.3125 -0.859375q-0.34375 -0.328125 -1.53125 -0.609375q-5.53125 -1.21875 -7.015625 -2.234375q-2.046875 -1.390625 -2.046875 -3.890625q0 -2.234375 1.765625 -3.765625q1.78125 -1.53125 5.5 -1.53125q3.546875 0 5.265625 1.15625q1.734375 1.15625 2.390625 3.421875l-4.3125 0.796875q-0.28125 -1.015625 -1.0625 -1.546875q-0.765625 -0.546875 -2.203125 -0.546875q-1.796875 0 -2.578125 0.515625q-0.53125 0.359375 -0.53125 0.921875q0 0.484375 0.46875 0.828125q0.609375 0.453125 4.265625 1.28125q3.65625 0.828125 5.109375 2.046875q1.421875 1.21875 1.421875 3.390625q0 2.375 -1.984375 4.09375q-1.984375 1.703125 -5.875 1.703125q-3.53125 0 -5.59375 -1.421875q-2.046875 -1.4375 -2.6875 -3.90625z" fill="#434343"></path></g></svg>