<svg xmlns="http://www.w3.org/2000/svg" xmlns:xlink="http://www.w3.org/1999/xlink" stroke-miterlimit="10" stroke-linecap="square" stroke="none" fill="none" viewBox="0.0 0.0 958.7847769028872 67.1994750656168" version="1.1"><clipPath id="p.0"><path clip-rule="nonzero" d="m0 0l958.7848 0l0 67.19948l-958.7848 0l0 -67.19948z"></path></clipPath><g clip-path="url(#p.0)"><path fill-rule="evenodd" d="m0 0l958.7848 0l0 67.19948l-958.7848 0z" fill="#e81526"></path><path fill-rule="evenodd" d="m-0.6771653 4.514436l958.77167 0l0 58.17323l-958.77167 0z" fill-opacity="0.0" fill="#000000"></path><path fill-rule="nonzero" d="m432.99774 21.328186l8.453125 0q2.859375 0 4.359375 0.4375q2.015625 0.59375 3.453125 2.109375q1.4375 1.515625 2.1875 3.71875q0.75 2.1875 0.75 5.40625q0 2.828125 -0.703125 4.875q-0.859375 2.5 -2.453125 4.046875q-1.203125 1.171875 -3.25 1.828125q-1.53125 0.484375 -4.09375 0.484375l-8.703125 0l0 -22.90625zm4.625 3.875l0 15.171875l3.453125 0q1.9375 0 2.796875 -0.21875q1.125 -0.28125 1.859375 -0.953125q0.75 -0.671875 1.21875 -2.203125q0.46875 -1.546875 0.46875 -4.203125q0 -2.65625 -0.46875 -4.078125q-0.46875 -1.421875 -1.3125 -2.21875q-0.84375 -0.796875 -2.140625 -1.078125q-0.96875 -0.21875 -3.796875 -0.21875l-2.078125 0zm28.078125 13.75l4.375 0.734375q-0.84375 2.40625 -2.671875 3.671875q-1.8125 1.25 -4.546875 1.25q-4.328125 0 -6.40625 -2.828125q-1.640625 -2.265625 -1.640625 -5.71875q0 -4.125 2.15625 -6.453125q2.15625 -2.34375 5.453125 -2.34375q3.703125 0 5.84375 2.453125q2.140625 2.4375 2.046875 7.484375l-11.0 0q0.046875 1.953125 1.0625 3.046875q1.015625 1.078125 2.53125 1.078125q1.03125 0 1.734375 -0.5625q0.703125 -0.5625 1.0625 -1.8125zm0.25 -4.4375q-0.046875 -1.90625 -0.984375 -2.890625q-0.9375 -1.0 -2.28125 -1.0q-1.4375 0 -2.375 1.046875q-0.9375 1.046875 -0.921875 2.84375l6.5625 0zm11.21875 -1.8125l-3.984375 -0.71875q0.671875 -2.40625 2.3125 -3.5625q1.640625 -1.15625 4.875 -1.15625q2.9375 0 4.375 0.703125q1.4375 0.6875 2.015625 1.765625q0.59375 1.0625 0.59375 3.921875l-0.046875 5.125q0 2.1875 0.203125 3.234375q0.21875 1.03125 0.796875 2.21875l-4.34375 0q-0.171875 -0.4375 -0.421875 -1.296875q-0.109375 -0.390625 -0.15625 -0.515625q-1.125 1.09375 -2.40625 1.640625q-1.28125 0.546875 -2.734375 0.546875q-2.5625 0 -4.046875 -1.390625q-1.46875 -1.390625 -1.46875 -3.515625q0 -1.40625 0.671875 -2.5q0.671875 -1.109375 1.875 -1.6875q1.21875 -0.59375 3.5 -1.03125q3.078125 -0.578125 4.265625 -1.078125l0 -0.4375q0 -1.265625 -0.625 -1.796875q-0.625 -0.546875 -2.359375 -0.546875q-1.171875 0 -1.828125 0.46875q-0.65625 0.453125 -1.0625 1.609375zm5.875 3.5625q-0.84375 0.28125 -2.671875 0.671875q-1.828125 0.390625 -2.390625 0.765625q-0.859375 0.609375 -0.859375 1.546875q0 0.921875 0.6875 1.59375q0.6875 0.671875 1.75 0.671875q1.1875 0 2.265625 -0.78125q0.796875 -0.59375 1.046875 -1.453125q0.171875 -0.5625 0.171875 -2.140625l0 -0.875zm23.734375 7.96875l-4.390625 0l0 -8.46875q0 -2.6875 -0.28125 -3.46875q-0.28125 -0.796875 -0.921875 -1.234375q-0.625 -0.4375 -1.515625 -0.4375q-1.140625 0 -2.046875 0.625q-0.90625 0.625 -1.25 1.65625q-0.328125 1.03125 -0.328125 3.8125l0 7.515625l-4.390625 0l0 -16.59375l4.078125 0l0 2.4375q2.171875 -2.8125 5.46875 -2.8125q1.453125 0 2.65625 0.53125q1.203125 0.515625 1.8125 1.328125q0.625 0.8125 0.859375 1.84375q0.25 1.03125 0.25 2.953125l0 10.3125zm2.90625 -4.734375l4.40625 -0.671875q0.28125 1.28125 1.140625 1.953125q0.859375 0.65625 2.40625 0.65625q1.703125 0 2.5625 -0.625q0.578125 -0.4375 0.578125 -1.171875q0 -0.5 -0.3125 -0.828125q-0.328125 -0.3125 -1.46875 -0.578125q-5.3125 -1.171875 -6.734375 -2.140625q-1.96875 -1.34375 -1.96875 -3.734375q0 -2.15625 1.7031555 -3.625q1.7030945 -1.46875 5.2812195 -1.46875q3.40625 0 5.0625 1.109375q1.65625 1.109375 2.28125 3.28125l-4.140625 0.765625q-0.265625 -0.96875 -1.015625 -1.484375q-0.734375 -0.515625 -2.109375 -0.515625q-1.734375 0 -2.484375 0.484375q-0.5 0.34375 -0.5 0.890625q0 0.46875 0.4375 0.796875q0.59375 0.4375 4.09375 1.234375q3.515625 0.796875 4.90625 1.953125q1.375 1.171875 1.375 3.265625q0 2.28125 -1.90625 3.921875q-1.90625 1.640625 -5.640625 1.640625q-3.390625 0 -5.375 -1.375q-1.96875 -1.375 -2.578125 -3.734375z" fill="#f8f9fa"></path><path fill-rule="evenodd" d="m891.5722 -0.005249344l67.212585 0l0 67.2126l-67.212585 0z" fill="#656d74"></path><path fill-rule="evenodd" d="m824.35956 -0.005249344l67.21265 0l0 67.2126l-67.21265 0z" fill="#197ad1"></path></g></svg>